<svg width="58" height="58" viewBox="0 0 58 58" fill="none" xmlns="http://www.w3.org/2000/svg">
<rect width="58" height="58" rx="16" fill="white"/>
<path d="M29.0748 43V41.4903C27.7586 41.4387 26.778 41.3355 26.1328 41.1806C25.4877 41.0258 25.0619 40.7161 24.8554 40.2516C24.649 39.7871 24.5457 39.0903 24.5457 38.1613V20.4323C24.5457 19.5032 24.649 18.8194 24.8554 18.3806C25.0619 17.9161 25.4877 17.5935 26.1328 17.4129C26.778 17.2323 27.7586 17.129 29.0748 17.1032V15.5935C28.5328 15.6194 27.7328 15.6452 26.6748 15.671C25.6167 15.671 24.3522 15.671 22.8812 15.671C21.4877 15.671 20.2103 15.6581 19.049 15.6323C17.8877 15.6065 17.0619 15.5935 16.5715 15.5935C13.8103 15.5935 11.6683 16.1484 10.1457 17.2581C8.59735 18.3677 7.82316 19.929 7.82316 21.9419C7.82316 23.5677 8.378 24.9484 9.48768 26.0839C10.5974 27.1935 12.1457 27.9806 14.1328 28.4452V28.4839C11.3715 28.7677 9.28123 29.4903 7.86187 30.6516C6.41671 31.8129 5.69413 33.3742 5.69413 35.3355C5.69413 37.7097 6.58445 39.5806 8.3651 40.9484C10.1457 42.3161 12.5974 43 15.7199 43C16.1328 43 16.6877 42.9871 17.3845 42.9613C18.0554 42.9355 18.8554 42.9226 19.7845 42.9226C20.6877 42.8968 21.707 42.8839 22.8425 42.8839C24.3393 42.8839 25.6296 42.8968 26.7135 42.9226C27.7715 42.9226 28.5586 42.9484 29.0748 43ZM17.4232 41.4129C14.8941 41.4129 13.0103 40.8968 11.7715 39.8645C10.507 38.8323 9.87477 37.271 9.87477 35.1806C9.87477 33.271 10.4683 31.8516 11.6554 30.9226C12.8167 29.9677 14.5845 29.4903 16.9586 29.4903H21.449V28.0581H17.7715C15.8103 28.0581 14.3393 27.5806 13.3586 26.6258C12.3522 25.6452 11.849 24.2387 11.849 22.4065C11.849 20.5742 12.3135 19.2323 13.2425 18.3806C14.1457 17.5032 15.5651 17.0774 17.5006 17.1032H20.6361V38.2C20.6361 39.1032 20.5586 39.7871 20.4038 40.2516C20.249 40.7161 19.9393 41.0258 19.4748 41.1806C19.0103 41.3355 18.3264 41.4129 17.4232 41.4129Z" fill="black"/>
<path d="M28.9252 43V41.4903C30.2414 41.4387 31.222 41.3355 31.8672 41.1806C32.5123 41 32.9381 40.6774 33.1446 40.2129C33.351 39.7484 33.4543 39.0645 33.4543 38.1613V20.4323C33.4543 19.5032 33.351 18.8194 33.1446 18.3806C32.9381 17.9161 32.5123 17.5935 31.8672 17.4129C31.222 17.2323 30.2414 17.129 28.9252 17.1032V15.5935C29.2865 15.6194 29.751 15.6452 30.3188 15.671C30.8865 15.671 31.5575 15.671 32.3317 15.671C33.1317 15.671 34.022 15.671 35.0027 15.671C36.4994 15.671 37.8156 15.671 38.951 15.671C40.0865 15.6452 40.9252 15.6323 41.4672 15.6323C44.6156 15.6323 47.0543 16.3419 48.7833 17.7613C50.5123 19.1548 51.3769 21.1419 51.3769 23.7226C51.3769 25.4774 50.9381 27 50.0607 28.2903C49.2091 29.5806 47.9704 30.5742 46.3446 31.271C44.7446 31.9677 42.822 32.3161 40.5769 32.3161C40.0607 32.3161 39.5575 32.3032 39.0672 32.2774C38.5769 32.2258 38.1123 32.1613 37.6736 32.0839C37.2607 32.0065 36.8865 31.9161 36.551 31.8129V30.3419C37.0672 30.4968 37.6349 30.6129 38.2543 30.6903C38.8994 30.7677 39.5446 30.8065 40.1898 30.8065C42.5381 30.8065 44.293 30.2258 45.4543 29.0645C46.6156 27.9032 47.1962 26.1613 47.1962 23.8387C47.1962 21.5419 46.6543 19.8516 45.5704 18.7677C44.4865 17.6581 42.822 17.1032 40.5769 17.1032H37.364V38.1613C37.364 39.0645 37.493 39.7484 37.751 40.2129C38.0091 40.6774 38.5252 41 39.2994 41.1806C40.0736 41.3355 41.222 41.4387 42.7446 41.4903V43C42.3317 42.9742 41.7769 42.9613 41.0801 42.9613C40.4091 42.9355 39.6091 42.9226 38.6801 42.9226C37.751 42.8968 36.7059 42.8839 35.5446 42.8839C33.9962 42.8839 32.6672 42.8968 31.5575 42.9226C30.4736 42.9226 29.5962 42.9484 28.9252 43Z" fill="#737373"/>
</svg>
